<?xml version="1.0" encoding="UTF-8" standalone="no"?><!DOCTYPE svg PUBLIC "-//W3C//DTD SVG 1.1//EN" "http://www.w3.org/Graphics/SVG/1.1/DTD/svg11.dtd"><svg width="100%" height="100%" viewBox="0 0 192 192" version="1.1" xmlns="http://www.w3.org/2000/svg" xmlns:xlink="http://www.w3.org/1999/xlink" xml:space="preserve" xmlns:serif="http://www.serif.com/" style="fill-rule:evenodd;clip-rule:evenodd;stroke-linejoin:round;stroke-miterlimit:2;"><path d="M123.308,128.076l6.193,16.62c3.379,9.015 5.912,18.029 5.912,23.945c0,11.55 -7.319,15.212 -18.58,16.057l-0,6.721c13.795,-1.4 22.803,-1.68 37.161,-1.68c14.639,-0 24.493,0.28 38.006,1.68l-0,-5.601c-11.261,-4.782 -20.833,-21.121 -30.405,-46.192l-38.287,-99.093c-4.786,-12.391 -9.853,-28.725 -12.95,-39.952c-13.513,2.238 -25.056,3.078 -37.162,3.078c-6.756,-0 -11.261,-0.28 -16.609,-0.56l-0,7.019c13.231,0.563 19.143,4.506 19.143,13.236c0,5.351 -0.563,8.449 -7.319,25.909l-33.22,86.137c-10.98,27.889 -20.833,47.889 -35.191,50.418l-0,5.601c12.387,-1.4 19.988,-1.68 31.531,-1.68c11.824,-0 19.988,0.28 30.968,1.68l-0,-6.721c-12.951,-1.409 -18.863,-7.043 -18.863,-18.592c0,-5.071 1.69,-11.832 4.505,-20.283l6.475,-17.747l68.692,0Zm-5.631,-14.885l-57.149,-0l28.434,-74.066l28.715,74.066Z" style="fill-rule:nonzero;"/></svg>